<svg width="0" height="0" class="hidden"><symbol xmlns="http://www.w3.org/2000/svg" viewBox="0 0 20 21" id="linkedin-logo-min"><path d="M18.5195 0.995117H1.47656C0.660156 0.995117 0 1.63965 0 2.43652V19.5498C0 20.3467 0.660156 20.9951 1.47656 20.9951H18.5195C19.3359 20.9951 20 20.3467 20 19.5537V2.43652C20 1.63965 19.3359 0.995117 18.5195 0.995117ZM5.93359 18.0381H2.96484V8.49121H5.93359V18.0381ZM4.44922 7.19043C3.49609 7.19043 2.72656 6.4209 2.72656 5.47168C2.72656 4.52246 3.49609 3.75293 4.44922 3.75293C5.39844 3.75293 6.16797 4.52246 6.16797 5.47168C6.16797 6.41699 5.39844 7.19043 4.44922 7.19043ZM17.043 18.0381H14.0781V13.3975C14.0781 12.292 14.0586 10.8662 12.5352 10.8662C10.9922 10.8662 10.7578 12.0732 10.7578 13.3193V18.0381H7.79688V8.49121H10.6406V9.7959H10.6797C11.0742 9.0459 12.043 8.25293 13.4844 8.25293C16.4883 8.25293 17.043 10.2295 17.043 12.7998V18.0381Z"></path></symbol><symbol xmlns="http://www.w3.org/2000/svg" viewBox="0 0 20 18" id="twitter-logo-min"><path d="M6.2918 17.1202C13.8371 17.1202 17.9652 10.8675 17.9652 5.44677C17.9652 5.27099 17.9613 5.0913 17.9535 4.91552C18.7566 4.33477 19.4496 3.61543 20 2.7913C19.2521 3.12405 18.458 3.34137 17.6449 3.43583C18.5011 2.92264 19.1421 2.11645 19.4492 1.16669C18.6438 1.64402 17.763 1.98073 16.8445 2.1624C16.2257 1.50485 15.4075 1.06948 14.5164 0.923596C13.6253 0.777708 12.711 0.929429 11.9148 1.3553C11.1186 1.78117 10.4848 2.45747 10.1115 3.27965C9.73825 4.10182 9.64619 5.02407 9.84961 5.9038C8.21874 5.82196 6.62328 5.39831 5.16665 4.6603C3.71002 3.9223 2.42474 2.88642 1.39414 1.61982C0.870333 2.52292 0.710047 3.59159 0.945859 4.60863C1.18167 5.62567 1.79589 6.51476 2.66367 7.09521C2.01219 7.07452 1.37498 6.89912 0.804688 6.58349V6.63427C0.804104 7.58201 1.13175 8.50071 1.73192 9.23419C2.3321 9.96768 3.16777 10.4707 4.09687 10.6577C3.49338 10.8228 2.85999 10.8469 2.2457 10.728C2.50788 11.5431 3.01798 12.256 3.70481 12.7672C4.39164 13.2784 5.22093 13.5624 6.07695 13.5796C4.62369 14.7211 2.82848 15.3403 0.980469 15.3374C0.652739 15.3369 0.325333 15.3168 0 15.2772C1.87738 16.4817 4.06128 17.1214 6.2918 17.1202Z"></path></symbol><symbol xmlns="http://www.w3.org/2000/svg" viewBox="0 0 20 21" id="facebook-logo-min"><path d="M20 10.9951C20 5.47227 15.5229 0.995117 10 0.995117C4.47715 0.995117 0 5.47227 0 10.9951C0 15.9863 3.65684 20.1234 8.4375 20.8736V13.8857H5.89844V10.9951H8.4375V8.79199C8.4375 6.28574 9.93047 4.90137 12.2146 4.90137C13.3084 4.90137 14.4531 5.09668 14.4531 5.09668V7.55762H13.1922C11.95 7.55762 11.5625 8.32852 11.5625 9.12012V10.9951H14.3359L13.8926 13.8857H11.5625V20.8736C16.3432 20.1234 20 15.9863 20 10.9951Z"></path></symbol></svg>